<?xml version="1.0" encoding="iso-8859-1"?>
<!-- Generator: Adobe Illustrator 19.0.0, SVG Export Plug-In . SVG Version: 6.00 Build 0)  -->
<svg version="1.1" id="Layer_1" xmlns="http://www.w3.org/2000/svg" xmlns:xlink="http://www.w3.org/1999/xlink" x="0px" y="0px"
	 viewBox="0 0 512 512" style="enable-background:new 0 0 512 512;" xml:space="preserve">
<g>
	<path style="fill:#E4AD40;" d="M50.122,357.789c-2.347-0.898-4.763-1.327-7.139-1.327c-8.042,0-15.635,4.88-18.685,12.824
		c-3.948,10.287,1.205,21.871,11.497,25.824c10.282,3.933,21.876-1.21,25.824-11.497S60.413,361.742,50.122,357.789z"/>
	<path style="fill:#E4AD40;" d="M181.924,53.331c3.572-3.972,5.387-9.086,5.109-14.415c-0.278-5.338-2.62-10.238-6.583-13.81
		c-3.972-3.572-9.111-5.456-14.425-5.104c-5.334,0.273-10.233,2.616-13.805,6.578c-3.572,3.972-5.387,9.096-5.109,14.425
		c0.278,5.338,2.62,10.238,6.583,13.81C161.888,62.183,174.546,61.529,181.924,53.331z"/>
</g>
<g>
	<path style="fill:#81A4E3;" d="M397.088,76.637c4.582,2.752,9.965,3.572,15.127,2.254h0.005c5.178-1.288,9.545-4.519,12.292-9.096
		c2.752-4.577,3.557-9.955,2.264-15.127c-1.293-5.182-4.523-9.545-9.101-12.297c-3.148-1.893-6.671-2.859-10.252-2.859
		c-1.625,0-3.26,0.195-4.875,0.605c-5.182,1.288-9.55,4.519-12.297,9.096c-2.752,4.567-3.557,9.945-2.264,15.127
		S392.511,73.884,397.088,76.637z"/>
	<path style="fill:#81A4E3;" d="M481.645,456.517c-3.596-2.918-7.988-4.46-12.551-4.46c-0.703,0-1.41,0.039-2.123,0.107
		c-5.309,0.556-10.086,3.152-13.444,7.3l-0.005,0.01c-6.934,8.559-5.607,21.169,2.962,28.107c8.559,6.929,21.173,5.602,28.107-2.957
		c3.362-4.148,4.904-9.359,4.348-14.669C488.379,464.647,485.788,459.874,481.645,456.517z"/>
	<path style="fill:#81A4E3;" d="M157.486,247.185c-3.274-2.128-7.022-3.23-10.838-3.23c-1.396,0-2.801,0.146-4.201,0.449
		c-5.221,1.103-9.701,4.177-12.604,8.657c-2.908,4.48-3.899,9.818-2.791,15.039c1.113,5.221,4.187,9.701,8.667,12.609
		c4.47,2.899,9.803,3.894,15.039,2.782c5.226-1.103,9.701-4.177,12.609-8.657c2.908-4.48,3.894-9.818,2.786-15.039
		C165.04,254.572,161.966,250.093,157.486,247.185z"/>
</g>
<g>
	<path style="fill:#314E55;" d="M92.107,197.147l-1.044-19.968l-35.788,1.876l93.423-103.76c5.768,2.994,12.04,4.621,18.353,4.621
		c10.945,0,21.847-4.46,29.723-13.205c7.149-7.935,10.78-18.182,10.218-28.84c-0.556-10.667-5.236-20.475-13.171-27.62
		c-7.935-7.144-18.202-10.638-28.84-10.218c-10.662,0.556-20.471,5.241-27.615,13.175c-7.144,7.934-10.775,18.182-10.213,28.84
		c0.378,7.235,2.788,13.997,6.688,19.878L40.422,165.683l-1.876-35.789l-19.958,1.054l3.66,69.849L92.107,197.147z M152.221,26.58
		c3.572-3.962,8.471-6.305,13.805-6.578c5.314-0.351,10.452,1.532,14.425,5.104c3.962,3.572,6.305,8.471,6.583,13.81
		c0.278,5.329-1.537,10.443-5.109,14.415c-7.378,8.198-20.036,8.852-28.229,1.484c-3.962-3.572-6.305-8.471-6.583-13.81
		C146.834,35.676,148.649,30.552,152.221,26.58z"/>
	<path style="fill:#314E55;" d="M386.797,93.774c6.219,3.731,13.179,5.655,20.252,5.701l33.736,135.323l-30.712-18.455
		l-10.296,17.138l59.968,36.023l36.027-59.963l-17.128-10.287l-18.461,30.713l-33.773-135.47
		c6.203-3.362,11.506-8.199,15.236-14.408c5.5-9.155,7.11-19.9,4.523-30.264c-2.581-10.355-9.047-19.09-18.197-24.594
		c-9.155-5.485-19.895-7.085-30.259-4.519c-10.36,2.586-19.095,9.047-24.594,18.202c-5.5,9.145-7.11,19.9-4.523,30.264
		C371.176,79.535,377.642,88.27,386.797,93.774z M390.251,49.212c2.747-4.577,7.115-7.808,12.297-9.096
		c1.615-0.41,3.25-0.605,4.875-0.605c3.582,0,7.105,0.966,10.252,2.859c4.577,2.752,7.808,7.115,9.101,12.297
		c1.293,5.173,0.488,10.55-2.264,15.127c-2.747,4.577-7.115,7.808-12.292,9.096h-0.005c-5.163,1.317-10.545,0.498-15.127-2.254
		c-4.577-2.752-7.808-7.115-9.101-12.297S387.499,53.78,390.251,49.212z"/>
	<path style="fill:#314E55;" d="M508.815,467.867c-1.113-10.618-6.3-20.173-14.595-26.888c-8.296-6.715-18.719-9.799-29.337-8.696
		c-7.204,0.761-13.832,3.524-19.504,7.731l-108.501-87.87l35.646-3.745l-2.088-19.87l-69.576,7.31l7.31,69.576l19.88-2.088
		l-3.745-35.653l108.504,87.871c-7.346,16.173-3.336,35.88,11.102,47.573c7.383,5.973,16.274,8.881,25.106,8.881
		c11.658,0,23.223-5.055,31.109-14.796C506.844,488.899,509.933,478.486,508.815,467.867z M484.592,484.625
		c-6.934,8.559-19.548,9.886-28.107,2.957c-8.569-6.939-9.896-19.548-2.962-28.108l0.005-0.01c3.357-4.148,8.135-6.744,13.444-7.3
		c0.713-0.068,1.42-0.107,2.123-0.107c4.563,0,8.954,1.542,12.551,4.46c4.143,3.357,6.734,8.13,7.295,13.439
		C489.496,475.265,487.954,480.477,484.592,484.625z"/>
	<path style="fill:#314E55;" d="M182.238,246.15c-3.143-6.318-7.792-11.788-13.865-15.732c-8.954-5.807-19.631-7.778-30.079-5.573
		c-10.443,2.215-19.402,8.374-25.219,17.333c-5.812,8.949-7.793,19.636-5.573,30.079c2.215,10.443,8.374,19.402,17.328,25.219
		c6.558,4.255,14.049,6.461,21.686,6.461c2.791,0,5.602-0.293,8.393-0.888c10.447-2.215,19.402-8.374,25.219-17.333
		c3.946-6.07,5.97-12.959,6.271-20.01l136.559-29.024l-19.518,30.051l16.767,10.892l38.101-58.674l-58.669-38.111l-10.892,16.767
		l30.065,19.526L182.238,246.15z M163.366,274.833c-2.908,4.48-7.383,7.554-12.609,8.657c-5.236,1.113-10.57,0.117-15.039-2.782
		c-4.48-2.908-7.554-7.388-8.667-12.609c-1.108-5.221-0.117-10.56,2.791-15.039c2.903-4.48,7.383-7.554,12.604-8.657
		c1.4-0.303,2.806-0.449,4.201-0.449c3.816,0,7.564,1.103,10.838,3.23c4.48,2.908,7.554,7.388,8.666,12.609
		C167.261,265.015,166.275,270.354,163.366,274.833z"/>
	<path style="fill:#314E55;" d="M198.301,398.233l14.575,32.739L82.54,380.944c0.806-7.011-0.115-14.133-3.061-20.754
		c-4.343-9.759-12.224-17.235-22.193-21.061c-9.979-3.836-20.842-3.543-30.586,0.8c-9.755,4.343-17.235,12.229-21.061,22.193
		s-3.543,20.827,0.8,30.586c4.343,9.76,12.224,17.235,22.193,21.061c4.655,1.786,9.501,2.674,14.342,2.674
		c5.529,0,11.043-1.161,16.245-3.474c6.615-2.945,12.063-7.62,16.156-13.367l130.347,50.032l-32.741,14.582l8.13,18.25
		l63.905-28.449l-28.454-63.905L198.301,398.233z M35.794,395.11c-10.291-3.953-15.444-15.537-11.497-25.824
		c3.05-7.944,10.643-12.824,18.685-12.824c2.377,0,4.792,0.43,7.139,1.327c10.291,3.953,15.444,15.537,11.497,25.824
		C57.671,393.899,46.076,399.043,35.794,395.11z"/>
</g>
<g>
</g>
<g>
</g>
<g>
</g>
<g>
</g>
<g>
</g>
<g>
</g>
<g>
</g>
<g>
</g>
<g>
</g>
<g>
</g>
<g>
</g>
<g>
</g>
<g>
</g>
<g>
</g>
<g>
</g>
</svg>
